<svg width="746" height="333" xmlns="http://www.w3.org/2000/svg" xmlns:xlink="http://www.w3.org/1999/xlink" xml:space="preserve" overflow="hidden"><defs><filter id="fx0" x="-10%" y="-10%" width="120%" height="120%" filterUnits="userSpaceOnUse" primitiveUnits="userSpaceOnUse"><feComponentTransfer color-interpolation-filters="sRGB"><feFuncR type="discrete" tableValues="0.498039 0.498039"/><feFuncG type="discrete" tableValues="0.498039 0.498039"/><feFuncB type="discrete" tableValues="0.498039 0.498039"/><feFuncA type="linear" slope="1" intercept="0"/></feComponentTransfer><feGaussianBlur stdDeviation="1.20979 1.20979"/></filter><clipPath id="clip1"><rect x="1" y="1" width="653" height="175"/></clipPath></defs><g transform="translate(-1827 -1071)"><g clip-path="url(#clip1)" filter="url(#fx0)" transform="translate(1884 1153)"><g><path d="M40.4591 98.9956 40.4591 141.742 67.0997 141.742C72.4279 141.742 77.2716 141.076 81.631 139.744 85.9904 138.412 89.4415 136.07 91.9845 132.72 94.5275 129.37 95.799 124.869 95.799 119.218 95.799 111.953 93.0945 106.766 87.6857 103.658 82.2768 100.55 75.4148 98.9956 67.0997 98.9956ZM539.459 35.3003 539.459 141.621 562.467 141.621C574.011 141.621 583.598 139.663 591.227 135.748 598.856 131.832 604.567 125.899 608.361 117.947 612.156 109.995 614.053 99.9644 614.053 87.855 614.053 76.3107 612.014 66.6434 607.938 58.853 603.861 51.0627 597.988 45.1896 590.318 41.2339 582.649 37.2782 573.365 35.3003 562.467 35.3003ZM382.459 35.1792 382.459 79.4995 409.826 79.4995C415.154 79.4995 419.736 78.6519 423.57 76.9566 427.405 75.2612 430.372 72.7183 432.471 69.3276 434.57 65.937 435.619 61.7795 435.619 56.855 435.619 49.6701 433.44 44.2612 429.08 40.6284 424.721 36.9956 418.949 35.1792 411.764 35.1792ZM40.4591 34.4527 40.4591 72.9605 61.6505 72.9605C68.1896 72.9605 73.6792 71.2651 78.1193 67.8745 82.5594 64.4839 84.7794 59.5191 84.7794 52.98 84.7794 48.3784 83.7703 44.7254 81.7521 42.021 79.7338 39.3166 76.9891 37.3791 73.5177 36.2085 70.0463 35.0379 66.0906 34.4527 61.6505 34.4527ZM505.432 6.96437 566.1 6.96437C583.537 6.96437 598.452 10.1935 610.844 16.6519 623.236 23.1102 632.701 32.3941 639.24 44.5034 645.779 56.6128 649.049 71.1441 649.049 88.0972 649.049 105.615 645.739 120.47 639.119 132.66 632.499 144.85 622.994 154.113 610.602 160.451 598.21 166.788 583.376 169.957 566.1 169.957L505.432 169.957ZM348.432 6.96437 415.518 6.96437C426.012 6.96437 435.377 8.43767 443.611 11.3843 451.846 14.3309 458.365 19.0939 463.168 25.6734 467.971 32.2528 470.373 40.9917 470.373 51.8901 470.373 62.2235 467.608 70.9826 462.078 78.1675 456.548 85.3524 448.173 90.4787 436.951 93.5464 443.813 94.5959 449.303 96.6746 453.42 99.7827 457.537 102.891 460.867 107.069 463.41 112.316 465.953 117.563 468.274 124.022 470.373 131.691L481.15 169.957 445.549 169.957 437.92 138.472C436.305 131.368 434.449 125.556 432.35 121.035 430.251 116.514 427.405 113.143 423.813 110.923 420.22 108.703 415.275 107.593 408.979 107.593L382.459 107.593 382.459 169.957 348.432 169.957ZM275.432 6.96437 309.459 6.96437 309.459 169.957 275.432 169.957ZM133.115 6.96437 254.088 6.96437 254.088 35.3003 210.736 35.3003 210.736 169.957 176.709 169.957 176.709 35.3003 133.115 35.3003ZM6.43177 6.96437 62.1349 6.96437C79.7338 6.96437 93.6596 10.2944 103.912 16.9546 114.165 23.6148 119.291 33.8472 119.291 47.6519 119.291 56.2899 117.132 63.6161 112.813 69.6304 108.494 75.6447 102.742 79.9839 95.5568 82.648 106.859 84.9084 115.477 89.5099 121.41 96.4526 127.344 103.395 130.311 111.953 130.311 122.125 130.311 133.023 127.828 142.004 122.863 149.068 117.899 156.132 110.794 161.379 101.551 164.81 92.3074 168.241 81.2273 169.957 68.3107 169.957L6.43177 169.957Z" stroke="#FFFFFF" stroke-width="3" stroke-linejoin="round" stroke-miterlimit="10" fill-rule="evenodd"/></g></g><path d="M1916.89 1244.43 1916.89 1287.17 1943.53 1287.17C1948.86 1287.17 1953.7 1286.51 1958.06 1285.17 1962.42 1283.84 1965.87 1281.5 1968.41 1278.15 1970.96 1274.8 1972.23 1270.3 1972.23 1264.65 1972.23 1257.38 1969.52 1252.2 1964.12 1249.09 1958.71 1245.98 1951.84 1244.43 1943.53 1244.43ZM2415.89 1180.73 2415.89 1287.05 2438.9 1287.05C2450.44 1287.05 2460.03 1285.09 2467.66 1281.18 2475.29 1277.26 2481 1271.33 2484.79 1263.38 2488.59 1255.42 2490.48 1245.39 2490.48 1233.28 2490.48 1221.74 2488.44 1212.07 2484.37 1204.28 2480.29 1196.49 2474.42 1190.62 2466.75 1186.66 2459.08 1182.71 2449.8 1180.73 2438.9 1180.73ZM2258.89 1180.61 2258.89 1224.93 2286.26 1224.93C2291.58 1224.93 2296.17 1224.08 2300 1222.39 2303.83 1220.69 2306.8 1218.15 2308.9 1214.76 2311 1211.37 2312.05 1207.21 2312.05 1202.28 2312.05 1195.1 2309.87 1189.69 2305.51 1186.06 2301.15 1182.43 2295.38 1180.61 2288.19 1180.61ZM1916.89 1179.88 1916.89 1218.39 1938.08 1218.39C1944.62 1218.39 1950.11 1216.7 1954.55 1213.3 1958.99 1209.91 1961.21 1204.95 1961.21 1198.41 1961.21 1193.81 1960.2 1190.16 1958.18 1187.45 1956.16 1184.75 1953.42 1182.81 1949.95 1181.64 1946.48 1180.47 1942.52 1179.88 1938.08 1179.88ZM2381.86 1152.39 2442.53 1152.39C2459.97 1152.39 2474.88 1155.62 2487.27 1162.08 2499.67 1168.54 2509.13 1177.82 2515.67 1189.93 2522.21 1202.04 2525.48 1216.57 2525.48 1233.53 2525.48 1251.05 2522.17 1265.9 2515.55 1278.09 2508.93 1290.28 2499.42 1299.54 2487.03 1305.88 2474.64 1312.22 2459.81 1315.39 2442.53 1315.39L2381.86 1315.39ZM2224.86 1152.39 2291.95 1152.39C2302.44 1152.39 2311.81 1153.87 2320.04 1156.81 2328.28 1159.76 2334.79 1164.52 2339.6 1171.1 2344.4 1177.68 2346.8 1186.42 2346.8 1197.32 2346.8 1207.65 2344.04 1216.41 2338.51 1223.6 2332.98 1230.78 2324.6 1235.91 2313.38 1238.98 2320.24 1240.03 2325.73 1242.1 2329.85 1245.21 2333.97 1248.32 2337.3 1252.5 2339.84 1257.75 2342.38 1262.99 2344.7 1269.45 2346.8 1277.12L2357.58 1315.39 2321.98 1315.39 2314.35 1283.9C2312.74 1276.8 2310.88 1270.99 2308.78 1266.46 2306.68 1261.94 2303.83 1258.57 2300.24 1256.35 2296.65 1254.13 2291.71 1253.02 2285.41 1253.02L2258.89 1253.02 2258.89 1315.39 2224.86 1315.39ZM2151.86 1152.39 2185.89 1152.39 2185.89 1315.39 2151.86 1315.39ZM2009.55 1152.39 2130.52 1152.39 2130.52 1180.73 2087.17 1180.73 2087.17 1315.39 2053.14 1315.39 2053.14 1180.73 2009.55 1180.73ZM1882.86 1152.39 1938.56 1152.39C1956.16 1152.39 1970.09 1155.72 1980.34 1162.38 1990.59 1169.04 1995.72 1179.28 1995.72 1193.08 1995.72 1201.72 1993.56 1209.05 1989.24 1215.06 1984.92 1221.07 1979.17 1225.41 1971.99 1228.08 1983.29 1230.34 1991.91 1234.94 1997.84 1241.88 2003.77 1248.83 2006.74 1257.38 2006.74 1267.55 2006.74 1278.45 2004.26 1287.43 1999.29 1294.5 1994.33 1301.56 1987.22 1306.81 1977.98 1310.24 1968.74 1313.67 1957.66 1315.39 1944.74 1315.39L1882.86 1315.39Z" stroke="#FFFFFF" stroke-width="3" stroke-linejoin="round" stroke-miterlimit="10" fill-rule="evenodd"/><text fill="#000000" fill-opacity="0" font-family="Arial,Arial_MSFontService,sans-serif" font-size="162.992" x="1882.86" y="1295.01">BTIRD</text></g></svg>